<svg xmlns="http://www.w3.org/2000/svg" xmlns:xlink="http://www.w3.org/1999/xlink" version="1.1" id="Layer_1" x="0px" y="0px" viewBox="0 0 594.5 349.8" style="enable-background:new 0 0 594.5 349.8;" xml:space="preserve">
<style type="text/css">
	.st0{opacity:0.56;}
	.st1{clip-path:url(#SVGID_1_);fill:#FFFFFF;}
	.st2{opacity:0.42;fill:url(#SVGID_2_);}
</style>
<g class="st0">
	<defs>
		
			<rect id="SVGID_8_" x="125.7" y="-118.5" transform="matrix(-1.836970e-16 1 -1 -1.836970e-16 472.7668 -122.4478)" class="st0" width="343.8" height="587.3"/>
	</defs>
	<clipPath id="SVGID_1_">
		<use xlink:href="#SVGID_8_" style="overflow:visible;"/>
	</clipPath>
	<polygon class="st1" points="638.6,-52.7 638.6,-86.8 609.1,-103.8 579.6,-86.8 579.6,-52.7 609.1,-35.6  "/>
	<polygon class="st1" points="670.1,2 670.1,-32.1 640.6,-49.1 611.1,-32.1 611.1,2 640.6,19  "/>
	<polygon class="st1" points="608,2 608,-32.1 578.4,-49.1 548.9,-32.1 548.9,2 578.4,19  "/>
	<polygon class="st1" points="638.6,56.1 638.6,22 609.1,5 579.6,22 579.6,56.1 609.1,73.2  "/>
	<polygon class="st1" points="670.1,110.8 670.1,76.7 640.6,59.6 611.1,76.7 611.1,110.8 640.6,127.8  "/>
	<polygon class="st1" points="608,110.8 608,76.7 578.4,59.6 548.9,76.7 548.9,110.8 578.4,127.8  "/>
	<polygon class="st1" points="638.6,164.9 638.6,130.8 609.1,113.7 579.6,130.8 579.6,164.9 609.1,181.9  "/>
	<polygon class="st1" points="670.1,219.5 670.1,185.4 640.6,168.4 611.1,185.4 611.1,219.5 640.6,236.6  "/>
	<polygon class="st1" points="608,219.5 608,185.4 578.4,168.4 548.9,185.4 548.9,219.5 578.4,236.6  "/>
	<polygon class="st1" points="638.6,273.6 638.6,239.6 609.1,222.5 579.6,239.6 579.6,273.6 609.1,290.7  "/>
	<polygon class="st1" points="670.1,328.3 670.1,294.2 640.6,277.2 611.1,294.2 611.1,328.3 640.6,345.4  "/>
	<polygon class="st1" points="608,328.3 608,294.2 578.4,277.2 548.9,294.2 548.9,328.3 578.4,345.4  "/>
	<polygon class="st1" points="638.6,382.4 638.6,348.3 609.1,331.3 579.6,348.3 579.6,382.4 609.1,399.5  "/>
	<polygon class="st1" points="670.1,437.1 670.1,403 640.6,385.9 611.1,403 611.1,437.1 640.6,454.1  "/>
	<polygon class="st1" points="608,437.1 608,403 578.4,385.9 548.9,403 548.9,437.1 578.4,454.1  "/>
	<polygon class="st1" points="576.2,-52.7 576.2,-86.8 546.7,-103.8 517.2,-86.8 517.2,-52.7 546.7,-35.6  "/>
	<polygon class="st1" points="545.6,2 545.6,-32.1 516.1,-49.1 486.5,-32.1 486.5,2 516.1,19  "/>
	<polygon class="st1" points="576.2,56.1 576.2,22 546.7,5 517.2,22 517.2,56.1 546.7,73.2  "/>
	<polygon class="st1" points="545.6,110.8 545.6,76.7 516.1,59.6 486.5,76.7 486.5,110.8 516.1,127.8  "/>
	<polygon class="st1" points="576.2,164.9 576.2,130.8 546.7,113.7 517.2,130.8 517.2,164.9 546.7,181.9  "/>
	<polygon class="st1" points="545.6,219.5 545.6,185.4 516.1,168.4 486.5,185.4 486.5,219.5 516.1,236.6  "/>
	<polygon class="st1" points="576.2,273.6 576.2,239.6 546.7,222.5 517.2,239.6 517.2,273.6 546.7,290.7  "/>
	<polygon class="st1" points="545.6,328.3 545.6,294.2 516.1,277.2 486.5,294.2 486.5,328.3 516.1,345.4  "/>
	<polygon class="st1" points="576.2,382.4 576.2,348.3 546.7,331.3 517.2,348.3 517.2,382.4 546.7,399.5  "/>
	<polygon class="st1" points="545.6,437.1 545.6,403 516.1,385.9 486.5,403 486.5,437.1 516.1,454.1  "/>
	<polygon class="st1" points="513.9,-52.7 513.9,-86.8 484.3,-103.8 454.8,-86.8 454.8,-52.7 484.3,-35.6  "/>
	<polygon class="st1" points="483.2,2 483.2,-32.1 453.7,-49.1 424.1,-32.1 424.1,2 453.7,19  "/>
	<polygon class="st1" points="513.9,56.1 513.9,22 484.3,5 454.8,22 454.8,56.1 484.3,73.2  "/>
	<polygon class="st1" points="483.2,110.8 483.2,76.7 453.7,59.6 424.1,76.7 424.1,110.8 453.7,127.8  "/>
	<polygon class="st1" points="513.9,164.9 513.9,130.8 484.3,113.7 454.8,130.8 454.8,164.9 484.3,181.9  "/>
	<polygon class="st1" points="483.2,219.5 483.2,185.4 453.7,168.4 424.1,185.4 424.1,219.5 453.7,236.6  "/>
	<polygon class="st1" points="513.9,273.6 513.9,239.6 484.3,222.5 454.8,239.6 454.8,273.6 484.3,290.7  "/>
	<polygon class="st1" points="483.2,328.3 483.2,294.2 453.7,277.2 424.1,294.2 424.1,328.3 453.7,345.4  "/>
	<polygon class="st1" points="513.9,382.4 513.9,348.3 484.3,331.3 454.8,348.3 454.8,382.4 484.3,399.5  "/>
	<polygon class="st1" points="483.2,437.1 483.2,403 453.7,385.9 424.1,403 424.1,437.1 453.7,454.1  "/>
	<polygon class="st1" points="451.5,-52.7 451.5,-86.8 422,-103.8 392.4,-86.8 392.4,-52.7 422,-35.6  "/>
	<polygon class="st1" points="420.8,2 420.8,-32.1 391.3,-49.1 361.8,-32.1 361.8,2 391.3,19  "/>
	<polygon class="st1" points="451.5,56.1 451.5,22 422,5 392.4,22 392.4,56.1 422,73.2  "/>
	<polygon class="st1" points="420.8,110.8 420.8,76.7 391.3,59.6 361.8,76.7 361.8,110.8 391.3,127.8  "/>
	<polygon class="st1" points="451.5,164.9 451.5,130.8 422,113.7 392.4,130.8 392.4,164.9 422,181.9  "/>
	<polygon class="st1" points="420.8,219.5 420.8,185.4 391.3,168.4 361.8,185.4 361.8,219.5 391.3,236.6  "/>
	<polygon class="st1" points="451.5,273.6 451.5,239.6 422,222.5 392.4,239.6 392.4,273.6 422,290.7  "/>
	<polygon class="st1" points="420.8,328.3 420.8,294.2 391.3,277.2 361.8,294.2 361.8,328.3 391.3,345.4  "/>
	<polygon class="st1" points="451.5,382.4 451.5,348.3 422,331.3 392.4,348.3 392.4,382.4 422,399.5  "/>
	<polygon class="st1" points="420.8,437.1 420.8,403 391.3,385.9 361.8,403 361.8,437.1 391.3,454.1  "/>
	<polygon class="st1" points="389.1,-52.7 389.1,-86.8 359.6,-103.8 330,-86.8 330,-52.7 359.6,-35.6  "/>
	<polygon class="st1" points="358.4,2 358.4,-32.1 328.9,-49.1 299.4,-32.1 299.4,2 328.9,19  "/>
	<polygon class="st1" points="389.1,56.1 389.1,22 359.6,5 330,22 330,56.1 359.6,73.2  "/>
	<polygon class="st1" points="358.4,110.8 358.4,76.7 328.9,59.6 299.4,76.7 299.4,110.8 328.9,127.8  "/>
	<polygon class="st1" points="389.1,164.9 389.1,130.8 359.6,113.7 330,130.8 330,164.9 359.6,181.9  "/>
	<polygon class="st1" points="358.4,219.5 358.4,185.4 328.9,168.4 299.4,185.4 299.4,219.5 328.9,236.6  "/>
	<polygon class="st1" points="389.1,273.6 389.1,239.6 359.6,222.5 330,239.6 330,273.6 359.6,290.7  "/>
	<polygon class="st1" points="358.4,328.3 358.4,294.2 328.9,277.2 299.4,294.2 299.4,328.3 328.9,345.4  "/>
	<polygon class="st1" points="389.1,382.4 389.1,348.3 359.6,331.3 330,348.3 330,382.4 359.6,399.5  "/>
	<polygon class="st1" points="358.4,437.1 358.4,403 328.9,385.9 299.4,403 299.4,437.1 328.9,454.1  "/>
	<polygon class="st1" points="326.7,-52.7 326.7,-86.8 297.2,-103.8 267.7,-86.8 267.7,-52.7 297.2,-35.6  "/>
	<polygon class="st1" points="296,2 296,-32.1 266.5,-49.1 237,-32.1 237,2 266.5,19  "/>
	<polygon class="st1" points="326.7,56.1 326.7,22 297.2,5 267.7,22 267.7,56.1 297.2,73.2  "/>
	<polygon class="st1" points="296,110.8 296,76.7 266.5,59.6 237,76.7 237,110.8 266.5,127.8  "/>
	<polygon class="st1" points="326.7,164.9 326.7,130.8 297.2,113.7 267.7,130.8 267.7,164.9 297.2,181.9  "/>
	<polygon class="st1" points="296,219.5 296,185.4 266.5,168.4 237,185.4 237,219.5 266.5,236.6  "/>
	<polygon class="st1" points="326.7,273.6 326.7,239.6 297.2,222.5 267.7,239.6 267.7,273.6 297.2,290.7  "/>
	<polygon class="st1" points="296,328.3 296,294.2 266.5,277.2 237,294.2 237,328.3 266.5,345.4  "/>
	<polygon class="st1" points="326.7,382.4 326.7,348.3 297.2,331.3 267.7,348.3 267.7,382.4 297.2,399.5  "/>
	<polygon class="st1" points="296,437.1 296,403 266.5,385.9 237,403 237,437.1 266.5,454.1  "/>
	<polygon class="st1" points="264.3,-52.7 264.3,-86.8 234.8,-103.8 205.3,-86.8 205.3,-52.7 234.8,-35.6  "/>
	<polygon class="st1" points="233.7,2 233.7,-32.1 204.1,-49.1 174.6,-32.1 174.6,2 204.1,19  "/>
	<polygon class="st1" points="264.3,56.1 264.3,22 234.8,5 205.3,22 205.3,56.1 234.8,73.2  "/>
	<polygon class="st1" points="233.7,110.8 233.7,76.7 204.1,59.6 174.6,76.7 174.6,110.8 204.1,127.8  "/>
	<polygon class="st1" points="264.3,164.9 264.3,130.8 234.8,113.7 205.3,130.8 205.3,164.9 234.8,181.9  "/>
	<polygon class="st1" points="233.7,219.5 233.7,185.4 204.1,168.4 174.6,185.4 174.6,219.5 204.1,236.6  "/>
	<polygon class="st1" points="264.3,273.6 264.3,239.6 234.8,222.5 205.3,239.6 205.3,273.6 234.8,290.7  "/>
	<polygon class="st1" points="233.7,328.3 233.7,294.2 204.1,277.2 174.6,294.2 174.6,328.3 204.1,345.4  "/>
	<polygon class="st1" points="264.3,382.4 264.3,348.3 234.8,331.3 205.3,348.3 205.3,382.4 234.8,399.5  "/>
	<polygon class="st1" points="233.7,437.1 233.7,403 204.1,385.9 174.6,403 174.6,437.1 204.1,454.1  "/>
	<polygon class="st1" points="202,-52.7 202,-86.8 172.4,-103.8 142.9,-86.8 142.9,-52.7 172.4,-35.6  "/>
	<polygon class="st1" points="171.3,2 171.3,-32.1 141.8,-49.1 112.2,-32.1 112.2,2 141.8,19  "/>
	<polygon class="st1" points="202,56.1 202,22 172.4,5 142.9,22 142.9,56.1 172.4,73.2  "/>
	<polygon class="st1" points="171.3,110.8 171.3,76.7 141.8,59.6 112.2,76.7 112.2,110.8 141.8,127.8  "/>
	<polygon class="st1" points="202,164.9 202,130.8 172.4,113.7 142.9,130.8 142.9,164.9 172.4,181.9  "/>
	<polygon class="st1" points="171.3,219.5 171.3,185.4 141.8,168.4 112.2,185.4 112.2,219.5 141.8,236.6  "/>
	<polygon class="st1" points="202,273.6 202,239.6 172.4,222.5 142.9,239.6 142.9,273.6 172.4,290.7  "/>
	<polygon class="st1" points="171.3,328.3 171.3,294.2 141.8,277.2 112.2,294.2 112.2,328.3 141.8,345.4  "/>
	<polygon class="st1" points="202,382.4 202,348.3 172.4,331.3 142.9,348.3 142.9,382.4 172.4,399.5  "/>
	<polygon class="st1" points="171.3,437.1 171.3,403 141.8,385.9 112.2,403 112.2,437.1 141.8,454.1  "/>
	<polygon class="st1" points="139.6,-52.7 139.6,-86.8 110,-103.8 80.5,-86.8 80.5,-52.7 110,-35.6  "/>
	<polygon class="st1" points="108.9,2 108.9,-32.1 79.4,-49.1 49.8,-32.1 49.8,2 79.4,19  "/>
	<polygon class="st1" points="139.6,56.1 139.6,22 110,5 80.5,22 80.5,56.1 110,73.2  "/>
	<polygon class="st1" points="108.9,110.8 108.9,76.7 79.4,59.6 49.8,76.7 49.8,110.8 79.4,127.8  "/>
	<polygon class="st1" points="139.6,164.9 139.6,130.8 110,113.7 80.5,130.8 80.5,164.9 110,181.9  "/>
	<polygon class="st1" points="108.9,219.5 108.9,185.4 79.4,168.4 49.8,185.4 49.8,219.5 79.4,236.6  "/>
	<polygon class="st1" points="139.6,273.6 139.6,239.6 110,222.5 80.5,239.6 80.5,273.6 110,290.7  "/>
	<polygon class="st1" points="108.9,328.3 108.9,294.2 79.4,277.2 49.8,294.2 49.8,328.3 79.4,345.4  "/>
	<polygon class="st1" points="139.6,382.4 139.6,348.3 110,331.3 80.5,348.3 80.5,382.4 110,399.5  "/>
	<polygon class="st1" points="108.9,437.1 108.9,403 79.4,385.9 49.8,403 49.8,437.1 79.4,454.1  "/>
	<polygon class="st1" points="77.2,-52.7 77.2,-86.8 47.7,-103.8 18.1,-86.8 18.1,-52.7 47.7,-35.6  "/>
	<polygon class="st1" points="46.5,2 46.5,-32.1 17,-49.1 -12.5,-32.1 -12.5,2 17,19  "/>
	<polygon class="st1" points="77.2,56.1 77.2,22 47.7,5 18.1,22 18.1,56.1 47.7,73.2  "/>
	<polygon class="st1" points="46.5,110.8 46.5,76.7 17,59.6 -12.5,76.7 -12.5,110.8 17,127.8  "/>
	<polygon class="st1" points="77.2,164.9 77.2,130.8 47.7,113.7 18.1,130.8 18.1,164.9 47.7,181.9  "/>
	<polygon class="st1" points="46.5,219.5 46.5,185.4 17,168.4 -12.5,185.4 -12.5,219.5 17,236.6  "/>
	<polygon class="st1" points="77.2,273.6 77.2,239.6 47.7,222.5 18.1,239.6 18.1,273.6 47.7,290.7  "/>
	<polygon class="st1" points="46.5,328.3 46.5,294.2 17,277.2 -12.5,294.2 -12.5,328.3 17,345.4  "/>
	<polygon class="st1" points="77.2,382.4 77.2,348.3 47.7,331.3 18.1,348.3 18.1,382.4 47.7,399.5  "/>
	<polygon class="st1" points="46.5,437.1 46.5,403 17,385.9 -12.5,403 -12.5,437.1 17,454.1  "/>
	<polygon class="st1" points="14.8,-52.7 14.8,-86.8 -14.7,-103.8 -44.3,-86.8 -44.3,-52.7 -14.7,-35.6  "/>
	<polygon class="st1" points="-15.9,2 -15.9,-32.1 -45.4,-49.1 -74.9,-32.1 -74.9,2 -45.4,19  "/>
	<polygon class="st1" points="14.8,56.1 14.8,22 -14.7,5 -44.3,22 -44.3,56.1 -14.7,73.2  "/>
	<polygon class="st1" points="-15.9,110.8 -15.9,76.7 -45.4,59.6 -74.9,76.7 -74.9,110.8 -45.4,127.8  "/>
	<polygon class="st1" points="14.8,164.9 14.8,130.8 -14.7,113.7 -44.3,130.8 -44.3,164.9 -14.7,181.9  "/>
	<polygon class="st1" points="-15.9,219.5 -15.9,185.4 -45.4,168.4 -74.9,185.4 -74.9,219.5 -45.4,236.6  "/>
	<polygon class="st1" points="14.8,273.6 14.8,239.6 -14.7,222.5 -44.3,239.6 -44.3,273.6 -14.7,290.7  "/>
	<polygon class="st1" points="-15.9,328.3 -15.9,294.2 -45.4,277.2 -74.9,294.2 -74.9,328.3 -45.4,345.4  "/>
	<polygon class="st1" points="14.8,382.4 14.8,348.3 -14.7,331.3 -44.3,348.3 -44.3,382.4 -14.7,399.5  "/>
	<polygon class="st1" points="-15.9,437.1 -15.9,403 -45.4,385.9 -74.9,403 -74.9,437.1 -45.4,454.1  "/>
</g>
<linearGradient id="SVGID_2_" gradientUnits="userSpaceOnUse" x1="289.7907" y1="-124.0926" x2="289.7907" y2="463.2558" gradientTransform="matrix(2.832769e-16 1 -1 2.832769e-16 467.1889 -114.6312)">
	<stop offset="0" style="stop-color:#ffffff"/>
	<stop offset="1" style="stop-color:#ffffff;stop-opacity:0.6"/>
</linearGradient>
<polygon class="st2" points="3.9,347.1 3.9,3.2 591.3,3.2 591.3,347.1 "/>
</svg>