<?xml version="1.0" encoding="utf-8"?>
<!-- Generator: Adobe Illustrator 23.0.5, SVG Export Plug-In . SVG Version: 6.00 Build 0)  -->
<svg version="1.1" id="Layer_1" xmlns="http://www.w3.org/2000/svg" xmlns:xlink="http://www.w3.org/1999/xlink" x="0px" y="0px"
	 viewBox="0 0 742 525.02" style="enable-background:new 0 0 742 525.02;" xml:space="preserve">
<style type="text/css">
	.st0{fill:url(#SVGID_1_);}
	.st1{fill:url(#SVGID_2_);}
	.st2{fill:url(#SVGID_3_);}
	.st3{fill:url(#SVGID_4_);}
	.st4{fill:url(#SVGID_5_);}
	.st5{fill:url(#SVGID_6_);}
	.st6{fill:url(#SVGID_7_);}
	.st7{fill:url(#SVGID_8_);}
	.st8{fill:url(#SVGID_9_);}
	.st9{fill:url(#SVGID_10_);}
	.st10{fill:url(#SVGID_11_);}
</style>
<g>
	<linearGradient id="SVGID_1_" gradientUnits="userSpaceOnUse" x1="47.5879" y1="264.2839" x2="697.5205" y2="264.2839">
		<stop  offset="0" style="stop-color:#936120"/>
		<stop  offset="1" style="stop-color:#E2BD68"/>
	</linearGradient>
	<path class="st0" d="M697.52,488.83H47.59V39.74h649.93V488.83z M50.58,485.83h643.94V42.74H50.58V485.83z"/>
	<linearGradient id="SVGID_2_" gradientUnits="userSpaceOnUse" x1="25.8271" y1="39.0967" x2="68.0459" y2="39.0967">
		<stop  offset="0" style="stop-color:#936120"/>
		<stop  offset="1" style="stop-color:#E2BD68"/>
	</linearGradient>
	<path class="st1" d="M66.58,19.45c-10.21,11.77-9.71,29.57,1.47,40.75c-11.18-11.18-28.99-11.66-40.76-1.46
		C37.49,46.98,37,29.16,25.83,17.99C37,29.16,54.81,29.66,66.58,19.45z"/>
	<linearGradient id="SVGID_3_" gradientUnits="userSpaceOnUse" x1="12.1602" y1="254.688" x2="49.0498" y2="254.688">
		<stop  offset="0" style="stop-color:#936120"/>
		<stop  offset="1" style="stop-color:#E2BD68"/>
	</linearGradient>
	<path class="st2" d="M49.05,294.32c0-20.99-16.27-38.17-36.89-39.63c20.62-1.46,36.89-18.65,36.89-39.63
		C49.05,236.03,49.05,273.33,49.05,294.32z"/>
	<linearGradient id="SVGID_4_" gradientUnits="userSpaceOnUse" x1="676.8398" y1="39.1035" x2="719.0586" y2="39.1035">
		<stop  offset="0" style="stop-color:#936120"/>
		<stop  offset="1" style="stop-color:#E2BD68"/>
	</linearGradient>
	<path class="st3" d="M717.59,58.75c-11.77-10.2-29.57-9.71-40.75,1.47c11.18-11.18,11.67-28.99,1.46-40.76
		c11.77,10.21,29.59,9.71,40.76-1.46C707.89,29.17,707.39,46.98,717.59,58.75z"/>
	<linearGradient id="SVGID_5_" gradientUnits="userSpaceOnUse" x1="676.8398" y1="487.1338" x2="719.0586" y2="487.1338">
		<stop  offset="0" style="stop-color:#936120"/>
		<stop  offset="1" style="stop-color:#E2BD68"/>
	</linearGradient>
	<path class="st4" d="M678.31,506.78c10.2-11.77,9.71-29.57-1.47-40.75c11.18,11.18,28.99,11.66,40.76,1.46
		c-10.2,11.77-9.71,29.58,1.46,40.76C707.89,497.07,690.07,496.57,678.31,506.78z"/>
	<linearGradient id="SVGID_6_" gradientUnits="userSpaceOnUse" x1="25.8271" y1="487.127" x2="68.0459" y2="487.127">
		<stop  offset="0" style="stop-color:#936120"/>
		<stop  offset="1" style="stop-color:#E2BD68"/>
	</linearGradient>
	<path class="st5" d="M27.29,467.48c11.77,10.2,29.57,9.71,40.75-1.47c-11.18,11.18-11.66,28.99-1.46,40.76
		c-11.77-10.21-29.59-9.71-40.76,1.46C37,497.06,37.5,479.25,27.29,467.48z"/>
	<linearGradient id="SVGID_7_" gradientUnits="userSpaceOnUse" x1="697.2422" y1="254.688" x2="734.1318" y2="254.688">
		<stop  offset="0" style="stop-color:#936120"/>
		<stop  offset="1" style="stop-color:#E2BD68"/>
	</linearGradient>
	<path class="st6" d="M697.24,215.06c0,20.99,16.27,38.17,36.89,39.63c-20.62,1.46-36.89,18.65-36.89,39.63
		C697.24,273.34,697.24,236.05,697.24,215.06z"/>
	<linearGradient id="SVGID_8_" gradientUnits="userSpaceOnUse" x1="332.9238" y1="22.8344" x2="412.1846" y2="22.8344">
		<stop  offset="0" style="stop-color:#936120"/>
		<stop  offset="1" style="stop-color:#E2BD68"/>
	</linearGradient>
	<path class="st7" d="M332.92,41.28c20.99,0,38.17-16.27,39.63-36.89c1.46,20.62,18.65,36.89,39.63,36.89
		C391.21,41.28,353.91,41.28,332.92,41.28z"/>
	<linearGradient id="SVGID_9_" gradientUnits="userSpaceOnUse" x1="332.9238" y1="505.5718" x2="412.1846" y2="505.5718">
		<stop  offset="0" style="stop-color:#936120"/>
		<stop  offset="1" style="stop-color:#E2BD68"/>
	</linearGradient>
	<path class="st8" d="M412.18,487.13c-20.99,0-38.17,16.27-39.63,36.89c-1.46-20.62-18.65-36.89-39.63-36.89
		C353.9,487.13,391.19,487.13,412.18,487.13z"/>
</g>
<linearGradient id="SVGID_10_" gradientUnits="userSpaceOnUse" x1="-66" y1="67.997" x2="-66" y2="67.997">
	<stop  offset="0" style="stop-color:#936120"/>
	<stop  offset="1" style="stop-color:#E2BD68"/>
</linearGradient>
<line class="st9" x1="-66" y1="17.99" x2="-66" y2="118"/>
<linearGradient id="SVGID_11_" gradientUnits="userSpaceOnUse" x1="-175" y1="67.997" x2="-175" y2="67.997">
	<stop  offset="0" style="stop-color:#936120"/>
	<stop  offset="1" style="stop-color:#E2BD68"/>
</linearGradient>
<line class="st10" x1="-175" y1="118" x2="-175" y2="17.99"/>
</svg>
