<?xml version="1.0" encoding="utf-8"?>
<!-- Generator: Adobe Illustrator 24.3.0, SVG Export Plug-In . SVG Version: 6.00 Build 0)  -->
<svg version="1.1" id="Layer_1" xmlns="http://www.w3.org/2000/svg" xmlns:xlink="http://www.w3.org/1999/xlink" x="0px" y="0px"
	 viewBox="0 0 84.4 84.4" style="enable-background:new 0 0 84.4 84.4;" xml:space="preserve">
<style type="text/css">
	.st0{fill:#FFFFFF;}
</style>
<path class="st0" d="M44.5,59.4c-0.4-0.8-0.2-1.7,0.6-2.2c0.3-0.1,0.5-0.2,0.8-0.2c0.6,0,1.1,0.3,1.4,0.8l2.1,3.7l5.5,0
	c0.9,0,1.6,0.7,1.6,1.6c0,0.9-0.7,1.6-1.6,1.6l-6.5,0c-0.6,0-1.1-0.3-1.4-0.8L44.5,59.4z M65.5,70.3c0.3,0.5,0.8,0.8,1.4,0.8l6.5,0
	c0.9,0,1.6-0.7,1.6-1.6s-0.7-1.6-1.6-1.6l-5.5,0l-0.1-0.3c-0.3-0.5-0.8-0.8-1.4-0.8c-0.3,0-0.6,0.1-0.8,0.2c-0.8,0.4-1,1.4-0.6,2.2
	L65.5,70.3z M0.5,63.1l0-14.6l0-8l0-14.4l0-9.6l0-14.4C0.7,1.5,1,1,1.5,0.7C1.8,0.5,2,0.5,2.3,0.5c0.3,0,0.6,0.1,0.8,0.2l6.4,4
	C10,5,10.3,5.6,10.3,6.1l0,13.5l5.6,3.5c0.5,0.3,0.8,0.8,0.7,1.4l0,14l12,7c0.5,0.3,0.8,0.8,0.8,1.4l0,8l8,0c0.6,0,1.1,0.3,1.4,0.8
	l7,12l14,0c0.6,0,1.1,0.3,1.4,0.8l3.5,5.7l13.5,0c0.6,0,1.1,0.3,1.4,0.8l4,6.4c0.3,0.5,0.3,1.1,0,1.6c-0.3,0.5-0.8,0.8-1.4,0.8
	l-14.4,0l-9.6,0l-14.4,0l-8,0l-14.6,0c-0.9,0-1.6-0.7-1.6-1.6c0-0.9,0.7-1.6,1.6-1.6l3.7,0l-2-3.2l-14.3,0c0,0,0,0,0,0
	c-0.1,0-0.2,0-0.3,0c0,0-0.1,0-0.1,0c-0.1,0-0.1,0-0.2,0c-0.1,0-0.1-0.1-0.2-0.1c0,0-0.1,0-0.1-0.1C7.5,77,7.4,77,7.4,76.9
	c-0.1-0.1-0.1-0.2-0.2-0.2c0,0,0-0.1-0.1-0.1c0-0.1-0.1-0.1-0.1-0.2c0-0.1,0-0.1,0-0.2c0,0,0-0.1,0-0.1c0-0.1,0-0.2,0-0.3l0,0
	l0-14.3l-3.2-2l0,3.7c0,0.9-0.7,1.6-1.6,1.6C1.3,64.7,0.5,64,0.5,63.1z M13.4,40.4l-3.2-1.9l0,4.8l3.2,1.9L13.4,40.4z M10.2,59.7
	l3.2,2l0-4.2l-3.2-2L10.2,59.7z M10.2,47.1l0,4.6l3.2,2l0-4.7L10.2,47.1z M7,45.2l-3.2-1.9l0,4.3l3.2,2L7,45.2z M7,57.6l0-4.2
	l-3.2-2l0,4.2L7,57.6z M20.8,74.2l-2.5-4c-0.3-0.5-0.3-1.1,0-1.6c0.3-0.5,0.8-0.8,1.4-0.8l8,0l5.8,0l-1.9-3.2l-10.3,0
	c-0.9,0-1.6-0.7-1.6-1.6l0-10.3l-3.2-1.9l0,5.8l0,8c0,0.6-0.3,1.1-0.8,1.4c-0.5,0.3-1.1,0.3-1.6,0l-3.9-2.5l0,8.5l2.1-2.1
	c0.3-0.3,0.7-0.5,1.1-0.5c0.4,0,0.8,0.2,1.1,0.5c0.6,0.6,0.6,1.6,0,2.3l-2.1,2.1L20.8,74.2z M43.9,71l-4.8,0l1.9,3.2l4.8,0L43.9,71z
	 M35.4,71l-4.7,0l2,3.2l4.6,0L35.4,71z M24.6,74.2l4.2,0l-2-3.2l-4.2,0L24.6,74.2z M32.8,80.6l-2-3.2l-4.2,0l2,3.2L32.8,80.6z
	 M40.9,80.6l-1.9-3.2l-4.5,0l2,3.2L40.9,80.6z M64.8,80.7l-2-3.2l-5.3,0l1.6,3.2L64.8,80.7z M66.6,77.5l2,3.2l10.6,0l-2-3.2
	L66.6,77.5z M47.6,71.1l2.3,4c0.3,0.5,0.3,1.1,0,1.6c-0.3,0.5-0.8,0.8-1.4,0.8l-5.8,0l1.9,3.2l10.9,0l-2-4.1
	c-0.2-0.5-0.2-1.1,0.1-1.6c0.3-0.5,0.8-0.8,1.4-0.8l5.9,0l-2-3.2L47.6,71.1z M16.6,42.3l0,4.8l5.6,3.3c0.5,0.3,0.8,0.8,0.8,1.4
	l0,9.6l9.6,0c0.6,0,1.1,0.3,1.4,0.8l3.3,5.6l4.8,0l-5.6-9.6l-8.7,0c-0.9,0-1.6-0.7-1.6-1.6l0-8.7L16.6,42.3z M10.3,23.4l0,5.9
	c0,0.6-0.3,1.1-0.8,1.4C9,31,8.4,31,7.9,30.8l-4.1-2.1l0,10.9L7,41.5l0-5.8c0-0.6,0.3-1.1,0.8-1.4c0.2-0.1,0.5-0.2,0.8-0.2
	c0.3,0,0.6,0.1,0.8,0.2l4,2.3l0-11.3L10.3,23.4z M3.8,25.1L7,26.7l0-5.3l-3.2-2L3.8,25.1z M3.9,15.6l3.2,2L7.1,7L3.9,5L3.9,15.6z
	 M2.1,83.7l12.6,0c0.9,0,1.6-0.7,1.6-1.6c0-0.9-0.7-1.6-1.6-1.6l-11,0l0-11c0-0.9-0.7-1.6-1.6-1.6c-0.9,0-1.6,0.7-1.6,1.6l0,12.6
	C0.5,83,1.2,83.7,2.1,83.7z M20.6,37.2l4.5,2.6c0.8,0.4,1.7,0.2,2.2-0.6c0.4-0.8,0.2-1.7-0.6-2.2L23,34.9l0-5.5
	c0-0.9-0.7-1.6-1.6-1.6c-0.9,0-1.6,0.7-1.6,1.6l0,6.5C19.8,36.4,20.1,36.9,20.6,37.2z M14.3,18.8l1,0.6c0.8,0.4,1.7,0.2,2.2-0.6
	c0.4-0.8,0.2-1.7-0.6-2.2l-0.3-0.1l0-5.5c0-0.9-0.7-1.6-1.6-1.6c-0.9,0-1.6,0.7-1.6,1.6l0,6.5C13.5,18,13.8,18.5,14.3,18.8z
	 M33.8,52.5c0.1,0,0.2-0.1,0.3-0.1c0.1,0,0.2-0.1,0.3-0.1c0.1-0.1,0.2-0.1,0.2-0.2c0.3-0.3,0.5-0.7,0.5-1.1c0-0.2,0-0.4-0.1-0.6
	c-0.1-0.2-0.2-0.4-0.3-0.5c-0.3-0.3-0.7-0.5-1.1-0.5c-0.4,0-0.8,0.2-1.1,0.5C32.2,50,32,50.1,32,50.3c-0.1,0.2-0.1,0.4-0.1,0.6
	c0,0.4,0.2,0.8,0.5,1.1C32.7,52.5,33.2,52.6,33.8,52.5z"/>
</svg>
