<?xml version="1.0" encoding="utf-8"?>
<!-- Generator: Adobe Illustrator 24.3.0, SVG Export Plug-In . SVG Version: 6.00 Build 0)  -->
<svg version="1.1" id="Layer_1" xmlns="http://www.w3.org/2000/svg" xmlns:xlink="http://www.w3.org/1999/xlink" x="0px" y="0px"
	 viewBox="0 0 84.4 84.4" style="enable-background:new 0 0 84.4 84.4;" xml:space="preserve">
<style type="text/css">
	.st0{fill:#FFFFFF;}
</style>
<path class="st0" d="M25.1,44.6c0.8-0.4,1.7-0.2,2.2,0.6c0.1,0.3,0.2,0.5,0.2,0.8c0,0.6-0.3,1.1-0.8,1.4L23,49.5V55
	c0,0.9-0.7,1.6-1.6,1.6c-0.9,0-1.6-0.7-1.6-1.6v-6.5c0-0.6,0.3-1.1,0.8-1.4L25.1,44.6z M14.2,65.6c-0.5,0.3-0.8,0.8-0.8,1.4l0,6.5
	c0,0.9,0.7,1.6,1.6,1.6s1.6-0.7,1.6-1.6v-5.5l0.3-0.1c0.5-0.3,0.8-0.8,0.8-1.4c0-0.3-0.1-0.6-0.2-0.8c-0.4-0.8-1.4-1-2.2-0.6
	L14.2,65.6z M21.2,0.6l14.6,0l8,0l14.4,0l9.6,0l14.4,0c0.6,0,1.1,0.3,1.4,0.8c0.1,0.2,0.2,0.5,0.2,0.8c0,0.3-0.1,0.6-0.2,0.8l-4,6.4
	c-0.3,0.5-0.8,0.8-1.4,0.8l-13.5,0l-3.5,5.7c-0.3,0.5-0.8,0.8-1.4,0.8h-14l-7,12c-0.3,0.5-0.8,0.8-1.4,0.8h-8l0,8
	c0,0.6-0.3,1.1-0.8,1.4l-12,7l0,14c0,0.6-0.3,1.1-0.8,1.4l-5.7,3.5l0,13.5c0,0.6-0.3,1.1-0.8,1.4l-6.4,4c-0.5,0.3-1.1,0.3-1.6,0
	c-0.5-0.3-0.8-0.8-0.8-1.4l0-14.4l0-9.6l0-14.4l0-8l0-14.6c0-0.9,0.7-1.6,1.6-1.6s1.6,0.7,1.6,1.6l0,3.7l3.2-2L7,8.6c0,0,0,0,0,0
	c0-0.1,0-0.2,0-0.3c0,0,0-0.1,0-0.1c0-0.1,0-0.1,0-0.2c0-0.1,0.1-0.1,0.1-0.2c0,0,0-0.1,0.1-0.1c0.1-0.1,0.1-0.2,0.2-0.2
	c0.1-0.1,0.2-0.1,0.2-0.2c0,0,0.1,0,0.1-0.1c0.1,0,0.1-0.1,0.2-0.1c0.1,0,0.1,0,0.2-0.1c0,0,0.1,0,0.1,0c0.1,0,0.2,0,0.3,0l0,0
	l14.3,0l2-3.2l-3.7,0c-0.9,0-1.6-0.7-1.6-1.6C19.6,1.3,20.4,0.6,21.2,0.6z M44,13.4l1.9-3.2H41l-1.9,3.2H44z M24.7,10.2l-2,3.2
	l4.2,0l2-3.2H24.7z M37.3,10.2l-4.6,0l-2,3.2l4.7,0L37.3,10.2z M39.2,7L41,3.8l-4.3,0l-2,3.2L39.2,7z M26.7,7h4.2l2-3.2l-4.2,0
	L26.7,7z M10.2,20.9l4-2.5c0.5-0.3,1.1-0.3,1.6,0c0.5,0.3,0.8,0.8,0.8,1.4v8l0,5.8l3.2-1.9l0-10.3c0-0.9,0.7-1.6,1.6-1.6h10.3
	l1.9-3.2h-5.8h-8c-0.6,0-1.1-0.3-1.4-0.8c-0.3-0.5-0.3-1.1,0-1.6l2.5-4h-8.5l2.1,2.1c0.3,0.3,0.5,0.7,0.5,1.1c0,0.4-0.2,0.8-0.5,1.1
	c-0.6,0.6-1.6,0.6-2.3,0l-2.1-2.1L10.2,20.9z M13.4,44v-4.8L10.2,41v4.8L13.4,44z M13.4,35.4v-4.7l-3.2,2l0,4.6L13.4,35.4z
	 M10.2,24.7l0,4.2l3.2-2l0-4.2L10.2,24.7z M3.8,32.9l3.2-2l0-4.2l-3.2,2L3.8,32.9z M3.8,41L7,39.2v-4.5l-3.2,2L3.8,41z M3.8,65L7,63
	l0-5.3l-3.2,1.6L3.8,65z M7,66.7l-3.2,2l0,10.6l3.2-2L7,66.7z M13.4,47.7l-4,2.3c-0.5,0.3-1.1,0.3-1.6,0C7.3,49.7,7,49.2,7,48.6
	l0-5.8l-3.2,1.9l0,10.9l4.1-2c0.5-0.2,1.1-0.2,1.6,0.1c0.5,0.3,0.8,0.8,0.8,1.4v5.9l3.2-2L13.4,47.7z M42.1,16.6l-4.8,0L34,22.2
	c-0.3,0.5-0.8,0.8-1.4,0.8H23l0,9.6c0,0.6-0.3,1.1-0.8,1.4l-5.6,3.3v4.8l9.6-5.6l0-8.7c0-0.9,0.7-1.6,1.6-1.6h8.7L42.1,16.6z
	 M60.9,10.2l-5.9,0c-0.6,0-1.1-0.3-1.4-0.8c-0.3-0.5-0.3-1.1-0.1-1.6l2-4.1l-10.9,0L42.9,7l5.8,0c0.6,0,1.1,0.3,1.4,0.8
	c0.1,0.2,0.2,0.5,0.2,0.8c0,0.3-0.1,0.6-0.2,0.8l-2.3,4h11.3L60.9,10.2z M59.2,3.8L57.6,7L63,7l2-3.2L59.2,3.8z M68.7,3.8l-2,3.2
	l10.6,0l2-3.2L68.7,3.8z M0.6,2.2l0,12.6c0,0.9,0.7,1.6,1.6,1.6s1.6-0.7,1.6-1.6l0-11l11,0c0.9,0,1.6-0.7,1.6-1.6
	c0-0.9-0.7-1.6-1.6-1.6l-12.6,0C1.3,0.6,0.6,1.3,0.6,2.2z M47.2,20.6l-2.6,4.5c-0.4,0.8-0.2,1.7,0.6,2.2c0.8,0.4,1.7,0.2,2.2-0.6
	l2.1-3.7H55c0.9,0,1.6-0.7,1.6-1.6c0-0.9-0.7-1.6-1.6-1.6h-6.5C48,19.8,47.5,20.1,47.2,20.6z M65.6,14.2l-0.6,1
	c-0.4,0.8-0.2,1.7,0.6,2.2c0.8,0.4,1.7,0.2,2.2-0.6l0.1-0.3h5.5c0.9,0,1.6-0.7,1.6-1.6c0-0.9-0.7-1.6-1.6-1.6l-6.5,0
	C66.4,13.4,65.9,13.7,65.6,14.2z M31.9,33.8c0,0.1,0.1,0.2,0.1,0.3c0,0.1,0.1,0.2,0.1,0.3c0.1,0.1,0.1,0.2,0.2,0.2
	c0.3,0.3,0.7,0.5,1.1,0.5c0.2,0,0.4,0,0.6-0.1c0.2-0.1,0.4-0.2,0.5-0.3c0.3-0.3,0.5-0.7,0.5-1.1c0-0.4-0.2-0.8-0.5-1.1
	c-0.2-0.2-0.3-0.3-0.5-0.4c-0.2-0.1-0.4-0.1-0.6-0.1c-0.4,0-0.8,0.2-1.1,0.5C32,32.7,31.8,33.3,31.9,33.8z"/>
</svg>
