<?xml version="1.0" encoding="utf-8"?>
<!-- Generator: Adobe Illustrator 24.3.0, SVG Export Plug-In . SVG Version: 6.00 Build 0)  -->
<svg version="1.1" id="Layer_1" xmlns="http://www.w3.org/2000/svg" xmlns:xlink="http://www.w3.org/1999/xlink" x="0px" y="0px"
	 viewBox="0 0 84.4 84.4" style="enable-background:new 0 0 84.4 84.4;" xml:space="preserve">
<style type="text/css">
	.st0{fill:#FFFFFF;}
</style>
<path class="st0" d="M59.3,39.8c-0.8,0.4-1.7,0.2-2.2-0.6c-0.1-0.3-0.2-0.5-0.2-0.8c0-0.6,0.3-1.1,0.8-1.4l3.7-2.1l0-5.5
	c0-0.9,0.7-1.6,1.6-1.6c0.9,0,1.6,0.7,1.6,1.6l0,6.5c0,0.6-0.3,1.1-0.8,1.4L59.3,39.8z M70.2,18.8c0.5-0.3,0.8-0.8,0.8-1.4l0-6.5
	c0-0.9-0.7-1.6-1.6-1.6c-0.9,0-1.6,0.7-1.6,1.6l0,5.5l-0.3,0.1c-0.5,0.3-0.8,0.8-0.8,1.4c0,0.3,0.1,0.6,0.2,0.8
	c0.4,0.8,1.4,1,2.2,0.6L70.2,18.8z M63,83.8l-14.6,0l-8,0l-14.4,0l-9.6,0L2,83.6c-0.6,0-1.1-0.3-1.4-0.8c-0.1-0.2-0.2-0.5-0.2-0.8
	c0-0.3,0.1-0.6,0.2-0.8l4-6.4C4.9,74.3,5.4,74,6,74l13.5,0l3.5-5.6c0.3-0.5,0.8-0.8,1.4-0.7l14,0l7-12c0.3-0.5,0.8-0.8,1.4-0.8l8,0
	l0-8c0-0.6,0.3-1.1,0.8-1.4l12-7l0-14c0-0.6,0.3-1.1,0.8-1.4l5.7-3.5l0-13.5c0-0.6,0.3-1.1,0.8-1.4l6.4-4c0.5-0.3,1.1-0.3,1.6,0
	c0.5,0.3,0.8,0.8,0.8,1.4l0,14.4l0,9.6l0,14.4l0,8l0,14.6c0,0.9-0.7,1.6-1.6,1.6s-1.6-0.7-1.6-1.6l0-3.7l-3.2,2l0,14.3c0,0,0,0,0,0
	c0,0.1,0,0.2,0,0.3c0,0,0,0.1,0,0.1c0,0.1,0,0.1,0,0.2c0,0.1-0.1,0.1-0.1,0.2c0,0,0,0.1-0.1,0.1c-0.1,0.1-0.1,0.2-0.2,0.2
	c-0.1,0.1-0.2,0.1-0.2,0.2c0,0-0.1,0-0.1,0.1c-0.1,0-0.1,0.1-0.2,0.1c-0.1,0-0.1,0-0.2,0c0,0-0.1,0-0.1,0c-0.1,0-0.2,0-0.3,0l0,0
	l-14.3,0l-2,3.2l3.7,0c0.9,0,1.6,0.7,1.6,1.6C64.6,83.1,63.9,83.8,63,83.8z M40.3,70.9l-1.9,3.2l4.8,0l1.9-3.2L40.3,70.9z
	 M59.5,74.2l2-3.2l-4.2,0l-2,3.2L59.5,74.2z M46.9,74.1l4.6,0l2-3.2l-4.7,0L46.9,74.1z M45.1,77.3l-1.9,3.2l4.3,0l2-3.2L45.1,77.3z
	 M57.5,77.4l-4.2,0l-2,3.2l4.2,0L57.5,77.4z M74.1,63.5l-4,2.5c-0.5,0.3-1.1,0.3-1.6,0c-0.5-0.3-0.8-0.8-0.8-1.4l0-8l0-5.8l-3.2,1.9
	l0,10.3c0,0.9-0.7,1.6-1.6,1.6l-10.3,0l-1.9,3.2l5.8,0l8,0c0.6,0,1.1,0.3,1.4,0.8c0.3,0.5,0.3,1.1,0,1.6l-2.5,3.9l8.5,0l-2.1-2.1
	c-0.3-0.3-0.5-0.7-0.5-1.1c0-0.4,0.2-0.8,0.5-1.1c0.6-0.6,1.6-0.6,2.3,0L74,72L74.1,63.5z M70.9,40.4l0,4.8l3.2-1.9l0-4.8L70.9,40.4
	z M70.9,49l0,4.7l3.2-2l0-4.6L70.9,49z M74.1,59.7l0-4.2l-3.2,2l0,4.2L74.1,59.7z M80.5,51.5l-3.2,2l0,4.2l3.2-2L80.5,51.5z
	 M80.5,43.4l-3.2,1.9l0,4.5l3.2-2L80.5,43.4z M80.6,19.5l-3.2,2l0,5.3l3.2-1.6L80.6,19.5z M77.4,17.7l3.2-2l0-10.6l-3.2,2L77.4,17.7
	z M70.9,36.7l4-2.3c0.5-0.3,1.1-0.3,1.6,0c0.5,0.3,0.8,0.8,0.8,1.4l0,5.8l3.2-1.9l0-10.9l-4.1,2c-0.5,0.2-1.1,0.2-1.6-0.1
	c-0.5-0.3-0.8-0.8-0.8-1.4l0-5.9l-3.2,2L70.9,36.7z M42.2,67.7l4.8,0l3.3-5.6c0.3-0.5,0.8-0.8,1.4-0.8l9.6,0l0-9.6
	c0-0.6,0.3-1.1,0.8-1.4l5.6-3.3l0-4.8l-9.6,5.6l0,8.7c0,0.9-0.7,1.6-1.6,1.6l-8.7,0L42.2,67.7z M23.3,74.1l5.9,0
	c0.6,0,1.1,0.3,1.4,0.8c0.3,0.5,0.3,1.1,0.1,1.6l-2.1,4.1l10.9,0l1.9-3.2l-5.8,0c-0.6,0-1.1-0.3-1.4-0.8C34.1,76.3,34,76,34,75.7
	c0-0.3,0.1-0.6,0.2-0.8l2.3-4l-11.3,0L23.3,74.1z M25,80.5l1.6-3.2l-5.3,0l-2,3.2L25,80.5z M15.5,80.5l2-3.2l-10.6,0l-2,3.2
	L15.5,80.5z M83.6,82.3l0-12.6c0-0.9-0.7-1.6-1.6-1.6c-0.9,0-1.6,0.7-1.6,1.6l0,11l-11,0c-0.9,0-1.6,0.7-1.6,1.6s0.7,1.6,1.6,1.6
	l12.6,0C82.9,83.9,83.6,83.1,83.6,82.3z M37.1,63.7l2.6-4.5c0.4-0.8,0.2-1.7-0.6-2.2c-0.8-0.4-1.7-0.2-2.2,0.6l-2.2,3.7l-5.5,0
	c-0.9,0-1.6,0.7-1.6,1.6c0,0.9,0.7,1.6,1.6,1.6l6.5,0C36.3,64.5,36.8,64.2,37.1,63.7z M18.7,70.1l0.6-1c0.4-0.8,0.2-1.7-0.6-2.2
	c-0.8-0.4-1.7-0.2-2.2,0.6l-0.1,0.3l-5.5,0c-0.9,0-1.6,0.7-1.6,1.6c0,0.9,0.7,1.6,1.6,1.6l6.5,0C17.8,70.9,18.4,70.6,18.7,70.1z
	 M52.4,50.6c0-0.1-0.1-0.2-0.1-0.3c0-0.1-0.1-0.2-0.1-0.3c-0.1-0.1-0.1-0.2-0.2-0.2c-0.3-0.3-0.7-0.5-1.1-0.5c-0.2,0-0.4,0-0.6,0.1
	c-0.2,0.1-0.4,0.2-0.5,0.3c-0.3,0.3-0.5,0.7-0.5,1.1c0,0.4,0.2,0.8,0.5,1.1c0.2,0.2,0.3,0.3,0.5,0.4c0.2,0.1,0.4,0.1,0.6,0.1
	c0.4,0,0.8-0.2,1.1-0.5C52.3,51.7,52.5,51.1,52.4,50.6z"/>
</svg>
