<?xml version="1.0" encoding="utf-8"?>
<!-- Generator: Adobe Illustrator 24.3.0, SVG Export Plug-In . SVG Version: 6.00 Build 0)  -->
<svg version="1.1" id="Layer_1" xmlns="http://www.w3.org/2000/svg" xmlns:xlink="http://www.w3.org/1999/xlink" x="0px" y="0px"
	 viewBox="0 0 84.4 84.4" style="enable-background:new 0 0 84.4 84.4;" xml:space="preserve">
<style type="text/css">
	.st0{fill:#FFFFFF;}
</style>
<path class="st0" d="M39.9,25.1c0.4,0.8,0.2,1.7-0.6,2.2c-0.3,0.1-0.5,0.2-0.8,0.2c-0.6,0-1.1-0.3-1.4-0.8L35,23h-5.5
	c-0.9,0-1.6-0.7-1.6-1.6c0-0.9,0.7-1.6,1.6-1.6h6.5c0.6,0,1.1,0.3,1.4,0.8L39.9,25.1z M18.8,14.2c-0.3-0.5-0.8-0.8-1.4-0.8H11
	c-0.9,0-1.6,0.7-1.6,1.6s0.7,1.6,1.6,1.6h5.5l0.1,0.3c0.3,0.5,0.8,0.8,1.4,0.8c0.3,0,0.6-0.1,0.8-0.2c0.8-0.4,1-1.4,0.6-2.2
	L18.8,14.2z M83.8,21.2v14.6v8v14.4v9.6v14.4c0,0.6-0.3,1.1-0.8,1.4c-0.2,0.1-0.5,0.2-0.8,0.2c-0.3,0-0.6-0.1-0.8-0.2l-6.4-4
	c-0.5-0.3-0.8-0.8-0.8-1.4V64.7l-5.7-3.5c-0.5-0.3-0.8-0.8-0.8-1.4v-14l-12-7C55.3,38.5,55,38,55,37.4v-8h-8c-0.6,0-1.1-0.3-1.4-0.8
	l-7-12h-14c-0.6,0-1.1-0.3-1.4-0.8l-3.5-5.7H6.2c-0.6,0-1.1-0.3-1.4-0.8L0.8,3c-0.3-0.5-0.3-1.1,0-1.6c0.3-0.5,0.8-0.8,1.4-0.8h14.4
	h9.6h14.4h8h14.6c0.9,0,1.6,0.7,1.6,1.6s-0.7,1.6-1.6,1.6h-3.7l2,3.2h14.3c0,0,0,0,0,0c0.1,0,0.2,0,0.3,0c0,0,0.1,0,0.1,0
	c0.1,0,0.1,0,0.2,0c0.1,0,0.1,0.1,0.2,0.1c0,0,0.1,0,0.1,0.1c0.1,0.1,0.2,0.1,0.2,0.2c0.1,0.1,0.1,0.2,0.2,0.2c0,0,0,0.1,0.1,0.1
	c0,0.1,0.1,0.1,0.1,0.2c0,0.1,0,0.1,0.1,0.2c0,0,0,0.1,0,0.1c0,0.1,0,0.2,0,0.3l0,0v14.3l3.2,2v-3.7c0-0.9,0.7-1.6,1.6-1.6
	C83.1,19.6,83.8,20.4,83.8,21.2z M71,44l3.2,1.9V41L71,39.1V44z M74.2,24.7l-3.2-2v4.2l3.2,2V24.7z M74.2,37.3v-4.6l-3.2-2v4.7
	L74.2,37.3z M77.4,39.2l3.2,1.9v-4.3l-3.2-2V39.2z M77.4,26.7v4.2l3.2,2v-4.2L77.4,26.7z M63.5,10.2l2.5,4c0.3,0.5,0.3,1.1,0,1.6
	c-0.3,0.5-0.8,0.8-1.4,0.8h-8h-5.8l1.9,3.2H63c0.9,0,1.6,0.7,1.6,1.6v10.3l3.2,1.9v-5.8v-8c0-0.6,0.3-1.1,0.8-1.4
	c0.5-0.3,1.1-0.3,1.6,0l4,2.5v-8.5l-2.1,2.1C71.8,14.9,71.4,15,71,15s-0.8-0.2-1.1-0.5c-0.6-0.6-0.6-1.6,0-2.3l2.1-2.1H63.5z
	 M40.5,13.4h4.8l-1.9-3.2h-4.8L40.5,13.4z M49,13.4h4.7l-2-3.2h-4.6L49,13.4z M59.7,10.2h-4.2l2,3.2h4.2L59.7,10.2z M51.5,3.8l2,3.2
	h4.2l-2-3.2H51.5z M43.4,3.8L45.3,7h4.5l-2-3.2H43.4z M19.5,3.8l2,3.2h5.3l-1.6-3.2H19.5z M17.7,7l-2-3.2H5.1l2,3.2H17.7z
	 M36.8,13.4l-2.3-4c-0.3-0.5-0.3-1.1,0-1.6C34.7,7.3,35.2,7,35.8,7h5.8l-1.9-3.2H28.8l2,4.1c0.2,0.5,0.2,1.1-0.1,1.6
	c-0.3,0.5-0.8,0.8-1.4,0.8h-5.9l2,3.2H36.8z M67.8,42.1v-4.8L62.2,34c-0.5-0.3-0.8-0.8-0.8-1.4V23h-9.6c-0.6,0-1.1-0.3-1.4-0.8
	l-3.3-5.6h-4.8l5.6,9.6h8.7c0.9,0,1.6,0.7,1.6,1.6v8.7L67.8,42.1z M74.2,60.9V55c0-0.6,0.3-1.1,0.8-1.4c0.5-0.3,1.1-0.3,1.6-0.1
	l4.1,2V44.7l-3.2-1.9v5.8c0,0.6-0.3,1.1-0.8,1.4c-0.2,0.1-0.5,0.2-0.8,0.2c-0.3,0-0.6-0.1-0.8-0.2l-4-2.3v11.3L74.2,60.9z
	 M80.6,59.2l-3.2-1.6v5.3l3.2,2V59.2z M80.6,68.7l-3.2-2v10.6l3.2,2V68.7z M82.2,0.6H69.6c-0.9,0-1.6,0.7-1.6,1.6s0.7,1.6,1.6,1.6
	h11v11c0,0.9,0.7,1.6,1.6,1.6c0.9,0,1.6-0.7,1.6-1.6V2.2C83.8,1.3,83.1,0.6,82.2,0.6z M63.8,47.2l-4.5-2.6c-0.8-0.4-1.7-0.2-2.2,0.6
	c-0.4,0.8-0.2,1.7,0.6,2.2l3.7,2.1V55c0,0.9,0.7,1.6,1.6,1.6c0.9,0,1.6-0.7,1.6-1.6v-6.5C64.6,48,64.3,47.5,63.8,47.2z M70.2,65.6
	l-1-0.6c-0.8-0.4-1.7-0.2-2.2,0.6c-0.4,0.8-0.2,1.7,0.6,2.2l0.3,0.1v5.5c0,0.9,0.7,1.6,1.6,1.6c0.9,0,1.6-0.7,1.6-1.6V67
	C71,66.4,70.7,65.9,70.2,65.6z M50.7,31.9c-0.1,0-0.2,0.1-0.3,0.1c-0.1,0-0.2,0.1-0.3,0.1c-0.1,0.1-0.2,0.1-0.2,0.2
	c-0.3,0.3-0.5,0.7-0.5,1.1c0,0.2,0,0.4,0.1,0.6c0.1,0.2,0.2,0.4,0.3,0.5c0.3,0.3,0.7,0.5,1.1,0.5c0.4,0,0.8-0.2,1.1-0.5
	c0.2-0.2,0.3-0.3,0.4-0.5c0.1-0.2,0.1-0.4,0.1-0.6c0-0.4-0.2-0.8-0.5-1.1C51.7,32,51.2,31.8,50.7,31.9z"/>
</svg>
