<?xml version="1.0" encoding="utf-8"?>
<!-- Generator: Adobe Illustrator 23.0.5, SVG Export Plug-In . SVG Version: 6.00 Build 0)  -->
<svg version="1.1" id="Layer_1" xmlns="http://www.w3.org/2000/svg" xmlns:xlink="http://www.w3.org/1999/xlink" x="0px" y="0px"
	 viewBox="0 0 173.95 135.36" style="enable-background:new 0 0 173.95 135.36;" xml:space="preserve">
<style type="text/css">
	.st0{fill:#F5C700;}
	.st1{fill:#F4BF2C;}
	.st2{fill:#150F00;}
</style>
<g>
	<path class="st0" d="M13,38.85c0.41-0.76,0.86-1.49,1.21-2.27c2.9-6.49,7.79-10.34,14.96-10.52c9.12-0.23,18.25-0.05,27.38-0.11
		c1.46-0.01,1.94,0.52,2.12,1.98C59.57,35.18,63.8,39,71.1,39.05c10.55,0.08,21.09,0.08,31.64-0.01
		c7.25-0.06,11.39-3.69,12.39-10.84c0.26-1.89,1.05-2.28,2.74-2.26c8.68,0.06,17.37-0.04,26.05,0.05
		c9.69,0.1,16.96,7.36,16.99,17.08c0.06,21.8,0.04,43.6-0.02,65.4c-0.03,8.74-6.78,15.87-15.52,16.61c-1.32,0.11-2.66,0.1-3.98,0.1
		c-36.07,0.01-72.14-0.1-108.21,0.07c-9.47,0.04-16.37-3.11-19.62-12.46c-0.07-0.21-0.37-0.35-0.56-0.52C13,87.79,13,63.32,13,38.85
		z M55.62,109.34c6.51,0.02,12.54-1.72,18.39-4.57c4.11-2,6.59-4.51,5.39-9.41c-0.29-1.19-0.19-2.47-0.31-3.7
		c-0.59-6.07-3.93-9.89-9.67-11.68c-1.52-0.47-3.07-0.97-4.64-1.13c-1.12-0.11-2.45,0.07-3.42,0.61c-3.09,1.73-6.6,2.42-9.42,0.74
		c-4.32-2.58-7.97-0.9-11.8,0.49c-4.61,1.68-7.04,5.23-7.76,9.95c-0.41,2.71-0.7,5.47-0.64,8.2c0.03,1.18,0.79,2.75,1.74,3.43
		C40.06,106.99,47.48,109.32,55.62,109.34z M42.91,60.8c0.12,1.38,0.18,2.89,0.4,4.38c0.92,6.24,6,11.48,11.51,11.93
		c5.42,0.45,10.67-3.57,12.63-9.83c1.6-5.09,1.36-10.22-0.75-15.06c-0.75-1.73-2.34-3.45-3.99-4.36
		c-9.27-5.12-18.69-0.02-19.6,10.44C43.05,59.09,42.99,59.88,42.91,60.8z M119.42,65.22C119.42,65.22,119.42,65.22,119.42,65.22
		c7.34-0.01,14.68,0.02,22.03-0.05c0.85-0.01,2.15-0.31,2.46-0.89c1.42-2.67-0.08-5.02-3.04-5.02c-14.42-0.01-28.84,0.01-43.26-0.05
		c-2.02-0.01-3.06,0.33-3,2.74c0.06,2.26,0.42,3.37,3.04,3.31C104.91,65.12,112.17,65.22,119.42,65.22z M119.4,85.85
		c-7.26,0-14.53,0.07-21.79-0.04c-2.25-0.04-2.85,0.78-2.88,2.93c-0.03,2.25,0.53,3.1,2.96,3.08c14.53-0.1,29.06-0.09,43.59,0
		c2.24,0.01,2.85-0.72,2.84-2.89c0-2.2-0.45-3.18-2.92-3.13C133.93,85.94,126.66,85.85,119.4,85.85z M119.67,72.6
		c-7.27,0-14.54,0.06-21.81-0.04c-2.22-0.03-3.15,0.52-3.15,2.96c0,2.4,0.83,3,3.1,2.98c14.45-0.08,28.9-0.07,43.35-0.01
		c2.08,0.01,3.01-0.44,2.96-2.79c-0.05-2.18-0.43-3.2-2.91-3.15C134.03,72.69,126.85,72.6,119.67,72.6z"/>
	<path class="st1" d="M99.19,10.12c0.87,1.85,1.65,3.74,2.64,5.52c0.4,0.7,1.2,1.46,1.95,1.64c5.77,1.41,8.53,9.67,4.44,14.11
		c-1.12,1.21-3.21,2.11-4.87,2.13c-10.97,0.19-21.95,0.14-32.93,0.08c-3.92-0.02-6.16-2.41-6.27-6.37c-0.04-1.5-0.08-3.02,0.05-4.51
		c0.22-2.59,2.05-4.85,4.61-5.11c2.39-0.25,3.2-1.2,3.47-3.57c0.16-1.38,1.58-2.61,2.44-3.91C82.87,10.12,91.03,10.12,99.19,10.12z"
		/>
	<g>
		<g>
			<path class="st2" d="M55.62,109.34c-8.13-0.01-15.56-2.35-22.15-7.08c-0.94-0.68-1.71-2.25-1.74-3.43
				c-0.07-2.73,0.22-5.49,0.64-8.2c0.72-4.71,3.16-8.27,7.76-9.95c3.83-1.39,7.47-3.07,11.8-0.49c2.82,1.68,6.34,0.99,9.42-0.74
				c0.96-0.54,2.3-0.72,3.42-0.61c1.57,0.15,3.12,0.65,4.64,1.13c5.75,1.79,9.09,5.61,9.67,11.68c0.12,1.23,0.02,2.52,0.31,3.7
				c1.2,4.9-1.28,7.41-5.39,9.41C68.16,107.61,62.13,109.35,55.62,109.34z"/>
			<path class="st2" d="M42.91,60.8c0.07-0.92,0.14-1.71,0.2-2.5c0.91-10.46,10.32-15.57,19.6-10.44c1.65,0.91,3.25,2.64,3.99,4.36
				c2.1,4.85,2.34,9.97,0.75,15.06c-1.97,6.26-7.21,10.28-12.63,9.83c-5.51-0.45-10.59-5.69-11.51-11.93
				C43.09,63.69,43.03,62.18,42.91,60.8z"/>
		</g>
	</g>
	<path class="st2" d="M119.42,65.22c-7.25,0-14.51-0.1-21.76,0.05c-2.62,0.06-2.98-1.06-3.04-3.31c-0.07-2.41,0.98-2.75,3-2.74
		c14.42,0.06,28.84,0.03,43.26,0.05c2.95,0,4.45,2.36,3.04,5.02c-0.31,0.58-1.61,0.88-2.46,0.89
		C134.11,65.24,126.76,65.21,119.42,65.22C119.42,65.22,119.42,65.22,119.42,65.22z"/>
	<path class="st2" d="M119.4,85.85c7.26,0,14.53,0.09,21.79-0.05c2.47-0.05,2.92,0.93,2.92,3.13c0,2.17-0.6,2.9-2.84,2.89
		c-14.53-0.09-29.06-0.1-43.59,0c-2.43,0.02-2.99-0.83-2.96-3.08c0.03-2.15,0.63-2.96,2.88-2.93
		C104.87,85.93,112.14,85.85,119.4,85.85z"/>
	<path class="st2" d="M119.67,72.6c7.18,0,14.36,0.09,21.54-0.05c2.48-0.05,2.87,0.97,2.91,3.15c0.05,2.35-0.88,2.8-2.96,2.79
		c-14.45-0.06-28.9-0.07-43.35,0.01c-2.26,0.01-3.1-0.59-3.1-2.98c0-2.44,0.93-2.99,3.15-2.96C105.13,72.66,112.4,72.6,119.67,72.6z
		"/>
</g>
</svg>
